# xmcd CD database file
# Copyright (C) 1997 Ti Kan
#
# Track frame offsets:
#  150
#  20122
#  37832
#  53689
#  70460
#  87497
#  101712
#  126432
#  138807
#  153440
#
# Disc length: 2315 seconds
#
# Revision: 1
# Processed by: cddbd v1.4b41PL1 Copyright (c) Steve Scherf et al.
# Submitted via: CDWizzard Release:4.24
#
DISCID=8709090a
DTITLE=High and Lonesome - For Sale or Rent
DYEAR=1900
DGENRE=
TTITLE0=Strawberry Wine
TTITLE1=Why Don't You Stop Me Now
TTITLE2=Doin' Time
TTITLE3=Cry
TTITLE4=This Is All We Are
TTITLE5=Ceremonial Child
TTITLE6=Come Back
TTITLE7=Picture On the Wall
TTITLE8=While You Undress
TTITLE9=The F-Tune
EXTD=
EXTT0=
EXTT1=
EXTT2=
EXTT3=
EXTT4=
EXTT5=
EXTT6=
EXTT7=
EXTT8=
EXTT9=
PLAYORDER=
